<?xml version="1.0" encoding="UTF-8"?>
<!DOCTYPE svg PUBLIC "-//W3C//DTD SVG 1.1//EN" "http://www.w3.org/Graphics/SVG/1.1/DTD/svg11.dtd">
<svg xmlns="http://www.w3.org/2000/svg" version="1.1" width="191px" height="90px" style="shape-rendering:geometricPrecision; text-rendering:geometricPrecision; image-rendering:optimizeQuality; fill-rule:evenodd; clip-rule:evenodd" xmlns:xlink="http://www.w3.org/1999/xlink">
<g><path style="opacity:0.921" fill="#0064fb" d="M 11.5,15.5 C 18.1612,16.8915 24.8278,18.3915 31.5,20C 39.3546,25.9994 40.5213,33.1661 35,41.5C 32.9205,43.1233 30.7538,44.6233 28.5,46C 34.1768,49.6363 36.0101,54.803 34,61.5C 32.0982,66.4005 28.5982,69.5671 23.5,71C 18.3892,71.4288 13.3892,72.2621 8.5,73.5C 8.25422,70.5299 6.58755,69.1966 3.5,69.5C 3.21478,67.712 3.54811,66.0453 4.5,64.5C 5.73619,65.2458 7.06953,65.5792 8.5,65.5C 9.20284,52.5036 9.36951,39.5036 9,26.5C 7.01861,28.3591 6.01861,30.6924 6,33.5C 1.45358,32.0723 -0.213086,29.0723 1,24.5C 4.40169,21.2376 7.90169,18.2376 11.5,15.5 Z M 15.5,24.5 C 19.7924,24.0349 23.7924,24.8682 27.5,27C 31.7866,32.2564 31.1199,36.9231 25.5,41C 22.5619,43.2574 19.2285,44.424 15.5,44.5C 15.5,37.8333 15.5,31.1667 15.5,24.5 Z M 15.5,49.5 C 25.0593,48.546 28.5593,52.546 26,61.5C 23.7146,64.8922 20.548,66.5589 16.5,66.5C 16.553,60.8044 16.2197,55.1377 15.5,49.5 Z"/></g>
<g><path style="opacity:0.907" fill="#0064fb" d="M 91.5,18.5 C 92.821,21.5982 93.4877,25.0982 93.5,29C 93.0151,35.8423 92.8484,42.6756 93,49.5C 97.2281,46.4462 100.061,42.4462 101.5,37.5C 103.409,36.6518 105.409,36.3184 107.5,36.5C 107.252,41.1599 105.252,44.9932 101.5,48C 103.049,49.214 104.215,50.714 105,52.5C 104.872,58.476 107.205,63.1427 112,66.5C 111.73,58.6734 111.563,50.8401 111.5,43C 111.833,41.8333 112.167,40.6667 112.5,39.5C 114.747,38.6258 117.08,38.2924 119.5,38.5C 119.266,47.7507 118.599,56.9174 117.5,66C 114.429,67.437 111.263,68.6037 108,69.5C 104.599,69.3017 102.266,67.6351 101,64.5C 100.519,60.236 99.3526,56.236 97.5,52.5C 95.7419,53.1279 94.2419,54.1279 93,55.5C 92.9748,58.9167 92.8082,62.2501 92.5,65.5C 90.9017,66.4847 89.235,66.6514 87.5,66C 86.3431,50.9078 86.1764,35.7412 87,20.5C 88.6225,19.9011 90.1225,19.2344 91.5,18.5 Z"/></g>
<g><path style="opacity:0.806" fill="#0064fb" d="M 113.5,26.5 C 121.579,25.8332 123.246,28.6665 118.5,35C 111.413,35.5578 109.746,32.7245 113.5,26.5 Z"/></g>
<g><path style="opacity:0.874" fill="#0064fb" d="M 45.5,37.5 C 47.8809,38.4196 50.2143,38.4196 52.5,37.5C 56.1085,39.3568 58.2752,42.3568 59,46.5C 60.01,52.0642 59.3433,57.3975 57,62.5C 49.2645,68.8676 43.2645,67.5343 39,58.5C 37.6221,50.331 39.7887,43.331 45.5,37.5 Z M 50.5,43.5 C 51.7498,43.5774 52.5831,44.244 53,45.5C 55.1181,51.8986 53.7848,57.5652 49,62.5C 44.7947,57.8049 43.7947,52.4716 46,46.5C 46.414,46.9574 46.914,47.2907 47.5,47.5C 48.5244,46.1482 49.5244,44.8149 50.5,43.5 Z"/></g>
<g><path style="opacity:0.889" fill="#0064fb" d="M 69.5,37.5 C 76.0673,36.2091 80.234,38.8758 82,45.5C 83.1102,51.4257 82.4436,57.0923 80,62.5C 74.6667,67.8333 69.3333,67.8333 64,62.5C 60.0104,52.7994 61.8437,44.4661 69.5,37.5 Z M 73.5,43.5 C 74.4959,43.4142 75.3292,43.7476 76,44.5C 78.7291,51.4786 77.3958,57.4786 72,62.5C 69.1282,59.9998 67.9615,56.8331 68.5,53C 68.6667,51.1667 68.8333,49.3333 69,47.5C 69.6667,46.1667 70.3333,46.1667 71,47.5C 71.6622,46.0161 72.4955,44.6828 73.5,43.5 Z"/></g>
</svg>
